<svg width="38" height="38" viewBox="0 0 38 38" fill="none" xmlns="http://www.w3.org/2000/svg">
<path d="M29.072 10.4477C28.1376 10.4446 27.2095 10.6022 26.3284 10.9136C26.7661 9.67961 26.9011 8.35864 26.7222 7.06168C26.5432 5.76472 26.0556 4.52969 25.3002 3.46033C24.5449 2.39097 23.5438 1.51852 22.3813 0.916371C21.2187 0.314227 19.9286 0 18.6194 0C17.3101 0 16.02 0.314227 14.8574 0.916371C13.6949 1.51852 12.6938 2.39097 11.9385 3.46033C11.1831 4.52969 10.6955 5.76472 10.5166 7.06168C10.3376 8.35864 10.4727 9.67961 10.9103 10.9136C9.67647 10.4766 8.35573 10.342 7.05912 10.5213C5.76251 10.7006 4.52787 11.1884 3.45891 11.9439C2.38995 12.6993 1.51791 13.7003 0.91603 14.8627C0.314146 16.025 0 17.3148 0 18.6238C0 19.9327 0.314146 21.2226 0.91603 22.3849C1.51791 23.5473 2.38995 24.5483 3.45891 25.3037C4.52787 26.0591 5.76251 26.547 7.05912 26.7262C8.35573 26.9055 9.67647 26.771 10.9103 26.334C10.4727 27.568 10.3376 28.8889 10.5166 30.1859C10.6955 31.4829 11.1831 32.7179 11.9385 33.7872C12.6938 34.8566 13.6949 35.7291 14.8574 36.3312C16.02 36.9333 17.3101 37.2476 18.6194 37.2476C19.9286 37.2476 21.2187 36.9333 22.3813 36.3312C23.5438 35.7291 24.5449 34.8566 25.3002 33.7872C26.0556 32.7179 26.5432 31.4829 26.7222 30.1859C26.9011 28.8889 26.7661 27.568 26.3284 26.334C27.4513 26.7333 28.6478 26.8824 29.8343 26.7709C31.0208 26.6594 32.1686 26.29 33.1974 25.6885C34.2262 25.087 35.1111 24.268 35.7903 23.2888C36.4694 22.3095 36.9264 21.1936 37.1292 20.0193C37.3321 18.8449 37.2758 17.6405 36.9645 16.4901C36.6531 15.3398 36.0941 14.2714 35.3266 13.3597C34.5592 12.448 33.6017 11.715 32.5213 11.212C31.441 10.709 30.2638 10.4482 29.072 10.4477ZM10.9336 26.3294C12.6973 21.3517 12.6973 15.9192 10.9336 10.9415C15.9115 12.7036 21.3435 12.7036 26.3215 10.9415C24.5594 15.9195 24.5594 21.3514 26.3215 26.3294C21.3442 24.5678 15.9132 24.5678 10.9359 26.3294H10.9336Z" fill="#01384D"/>
</svg>
